<?xml version="1.0" encoding="utf-8" standalone="no"?>
<!DOCTYPE svg PUBLIC "-//W3C//DTD SVG 1.1//EN"
  "http://www.w3.org/Graphics/SVG/1.1/DTD/svg11.dtd">
<svg xmlns:xlink="http://www.w3.org/1999/xlink" width="460.8pt" height="345.6pt" viewBox="0 0 460.8 345.6" xmlns="http://www.w3.org/2000/svg" version="1.1">
 <metadata>
  <rdf:RDF xmlns:dc="http://purl.org/dc/elements/1.1/" xmlns:cc="http://creativecommons.org/ns#" xmlns:rdf="http://www.w3.org/1999/02/22-rdf-syntax-ns#">
   <cc:Work>
    <dc:type rdf:resource="http://purl.org/dc/dcmitype/StillImage"/>
    <dc:date>2023-12-10T13:09:12.631151</dc:date>
    <dc:format>image/svg+xml</dc:format>
    <dc:creator>
     <cc:Agent>
      <dc:title>Matplotlib v3.5.3, https://matplotlib.org/</dc:title>
     </cc:Agent>
    </dc:creator>
   </cc:Work>
  </rdf:RDF>
 </metadata>
 <defs>
  <style type="text/css">*{stroke-linejoin: round; stroke-linecap: butt}</style>
 </defs>
 <g id="figure_1">
  <g id="patch_1">
   <path d="M 0 345.6 
L 460.8 345.6 
L 460.8 0 
L 0 0 
z
" style="fill: #ffffff"/>
  </g>
  <g id="axes_1">
   <g id="LineCollection_1">
    <path d="M 366.078065 175.755191 
L 320.972711 116.987894 
" clip-path="url(#p310a3cbb48)" style="fill: none; stroke: #808080"/>
    <path d="M 173.27978 182.244461 
L 251.725484 201.303792 
" clip-path="url(#p310a3cbb48)" style="fill: none; stroke: #808080"/>
    <path d="M 173.27978 182.244461 
L 179.288381 227.032269 
" clip-path="url(#p310a3cbb48)" style="fill: none; stroke: #808080"/>
    <path d="M 173.27978 182.244461 
L 201.26422 170.677439 
" clip-path="url(#p310a3cbb48)" style="fill: none; stroke: #808080"/>
    <path d="M 173.27978 182.244461 
L 176.774305 123.69706 
" clip-path="url(#p310a3cbb48)" style="fill: none; stroke: #808080"/>
    <path d="M 173.27978 182.244461 
L 113.829868 214.039712 
" clip-path="url(#p310a3cbb48)" style="fill: none; stroke: #808080"/>
    <path d="M 176.774305 123.69706 
L 135.401035 77.999298 
" clip-path="url(#p310a3cbb48)" style="fill: none; stroke: #808080"/>
    <path d="M 176.774305 123.69706 
L 117.462824 138.150154 
" clip-path="url(#p310a3cbb48)" style="fill: none; stroke: #808080"/>
    <path d="M 176.774305 123.69706 
L 174.665927 68.708006 
" clip-path="url(#p310a3cbb48)" style="fill: none; stroke: #808080"/>
    <path d="M 176.774305 123.69706 
L 128.367918 172.679687 
" clip-path="url(#p310a3cbb48)" style="fill: none; stroke: #808080"/>
    <path d="M 176.774305 123.69706 
L 173.27978 182.244461 
" clip-path="url(#p310a3cbb48)" style="fill: none; stroke: #808080"/>
    <path d="M 176.774305 123.69706 
L 201.26422 170.677439 
" clip-path="url(#p310a3cbb48)" style="fill: none; stroke: #808080"/>
    <path d="M 176.774305 123.69706 
L 247.113139 143.957307 
" clip-path="url(#p310a3cbb48)" style="fill: none; stroke: #808080"/>
    <path d="M 176.774305 123.69706 
L 229.450744 83.664429 
" clip-path="url(#p310a3cbb48)" style="fill: none; stroke: #808080"/>
    <path d="M 234.224506 291.322799 
L 179.288381 227.032269 
" clip-path="url(#p310a3cbb48)" style="fill: none; stroke: #808080"/>
    <path d="M 311.703527 56.488501 
L 229.450744 83.664429 
" clip-path="url(#p310a3cbb48)" style="fill: none; stroke: #808080"/>
    <path d="M 311.703527 56.488501 
L 320.972711 116.987894 
" clip-path="url(#p310a3cbb48)" style="fill: none; stroke: #808080"/>
    <path d="M 311.703527 56.488501 
L 285.104915 90.916559 
" clip-path="url(#p310a3cbb48)" style="fill: none; stroke: #808080"/>
    <path d="M 327.890548 174.358418 
L 320.972711 116.987894 
" clip-path="url(#p310a3cbb48)" style="fill: none; stroke: #808080"/>
    <path d="M 327.890548 174.358418 
L 251.725484 201.303792 
" clip-path="url(#p310a3cbb48)" style="fill: none; stroke: #808080"/>
    <path d="M 128.367918 172.679687 
L 176.774305 123.69706 
" clip-path="url(#p310a3cbb48)" style="fill: none; stroke: #808080"/>
    <path d="M 128.367918 172.679687 
L 179.288381 227.032269 
" clip-path="url(#p310a3cbb48)" style="fill: none; stroke: #808080"/>
    <path d="M 128.367918 172.679687 
L 201.26422 170.677439 
" clip-path="url(#p310a3cbb48)" style="fill: none; stroke: #808080"/>
    <path d="M 128.367918 172.679687 
L 113.829868 214.039712 
" clip-path="url(#p310a3cbb48)" style="fill: none; stroke: #808080"/>
    <path d="M 251.725484 201.303792 
L 302.087949 256.586404 
" clip-path="url(#p310a3cbb48)" style="fill: none; stroke: #808080"/>
    <path d="M 251.725484 201.303792 
L 247.113139 143.957307 
" clip-path="url(#p310a3cbb48)" style="fill: none; stroke: #808080"/>
    <path d="M 251.725484 201.303792 
L 282.936611 147.935847 
" clip-path="url(#p310a3cbb48)" style="fill: none; stroke: #808080"/>
    <path d="M 251.725484 201.303792 
L 173.27978 182.244461 
" clip-path="url(#p310a3cbb48)" style="fill: none; stroke: #808080"/>
    <path d="M 251.725484 201.303792 
L 316.84333 223.190249 
" clip-path="url(#p310a3cbb48)" style="fill: none; stroke: #808080"/>
    <path d="M 251.725484 201.303792 
L 201.26422 170.677439 
" clip-path="url(#p310a3cbb48)" style="fill: none; stroke: #808080"/>
    <path d="M 251.725484 201.303792 
L 179.288381 227.032269 
" clip-path="url(#p310a3cbb48)" style="fill: none; stroke: #808080"/>
    <path d="M 251.725484 201.303792 
L 243.844845 256.477108 
" clip-path="url(#p310a3cbb48)" style="fill: none; stroke: #808080"/>
    <path d="M 117.462824 138.150154 
L 176.774305 123.69706 
" clip-path="url(#p310a3cbb48)" style="fill: none; stroke: #808080"/>
    <path d="M 117.462824 138.150154 
L 201.26422 170.677439 
" clip-path="url(#p310a3cbb48)" style="fill: none; stroke: #808080"/>
    <path d="M 179.288381 227.032269 
L 128.367918 172.679687 
" clip-path="url(#p310a3cbb48)" style="fill: none; stroke: #808080"/>
    <path d="M 179.288381 227.032269 
L 113.829868 214.039712 
" clip-path="url(#p310a3cbb48)" style="fill: none; stroke: #808080"/>
    <path d="M 179.288381 227.032269 
L 251.725484 201.303792 
" clip-path="url(#p310a3cbb48)" style="fill: none; stroke: #808080"/>
    <path d="M 179.288381 227.032269 
L 183.421999 265.526471 
" clip-path="url(#p310a3cbb48)" style="fill: none; stroke: #808080"/>
    <path d="M 179.288381 227.032269 
L 149.272556 287.979011 
" clip-path="url(#p310a3cbb48)" style="fill: none; stroke: #808080"/>
    <path d="M 179.288381 227.032269 
L 201.26422 170.677439 
" clip-path="url(#p310a3cbb48)" style="fill: none; stroke: #808080"/>
    <path d="M 179.288381 227.032269 
L 243.844845 256.477108 
" clip-path="url(#p310a3cbb48)" style="fill: none; stroke: #808080"/>
    <path d="M 179.288381 227.032269 
L 173.27978 182.244461 
" clip-path="url(#p310a3cbb48)" style="fill: none; stroke: #808080"/>
    <path d="M 282.936611 147.935847 
L 201.26422 170.677439 
" clip-path="url(#p310a3cbb48)" style="fill: none; stroke: #808080"/>
    <path d="M 282.936611 147.935847 
L 285.104915 90.916559 
" clip-path="url(#p310a3cbb48)" style="fill: none; stroke: #808080"/>
    <path d="M 282.936611 147.935847 
L 251.725484 201.303792 
" clip-path="url(#p310a3cbb48)" style="fill: none; stroke: #808080"/>
    <path d="M 282.936611 147.935847 
L 320.972711 116.987894 
" clip-path="url(#p310a3cbb48)" style="fill: none; stroke: #808080"/>
    <path d="M 71.123702 126.61901 
L 176.774305 123.69706 
" clip-path="url(#p310a3cbb48)" style="fill: none; stroke: #808080"/>
    <path d="M 316.84333 223.190249 
L 251.725484 201.303792 
" clip-path="url(#p310a3cbb48)" style="fill: none; stroke: #808080"/>
    <path d="M 247.113139 143.957307 
L 285.104915 90.916559 
" clip-path="url(#p310a3cbb48)" style="fill: none; stroke: #808080"/>
    <path d="M 247.113139 143.957307 
L 320.972711 116.987894 
" clip-path="url(#p310a3cbb48)" style="fill: none; stroke: #808080"/>
    <path d="M 247.113139 143.957307 
L 201.26422 170.677439 
" clip-path="url(#p310a3cbb48)" style="fill: none; stroke: #808080"/>
    <path d="M 247.113139 143.957307 
L 251.725484 201.303792 
" clip-path="url(#p310a3cbb48)" style="fill: none; stroke: #808080"/>
    <path d="M 247.113139 143.957307 
L 176.774305 123.69706 
" clip-path="url(#p310a3cbb48)" style="fill: none; stroke: #808080"/>
    <path d="M 302.087949 256.586404 
L 251.725484 201.303792 
" clip-path="url(#p310a3cbb48)" style="fill: none; stroke: #808080"/>
    <path d="M 261.745599 57.263602 
L 285.104915 90.916559 
" clip-path="url(#p310a3cbb48)" style="fill: none; stroke: #808080"/>
    <path d="M 261.745599 57.263602 
L 320.972711 116.987894 
" clip-path="url(#p310a3cbb48)" style="fill: none; stroke: #808080"/>
    <path d="M 261.745599 57.263602 
L 229.450744 83.664429 
" clip-path="url(#p310a3cbb48)" style="fill: none; stroke: #808080"/>
    <path d="M 320.972711 116.987894 
L 247.113139 143.957307 
" clip-path="url(#p310a3cbb48)" style="fill: none; stroke: #808080"/>
    <path d="M 320.972711 116.987894 
L 372.801484 71.608141 
" clip-path="url(#p310a3cbb48)" style="fill: none; stroke: #808080"/>
    <path d="M 320.972711 116.987894 
L 346.654263 67.804849 
" clip-path="url(#p310a3cbb48)" style="fill: none; stroke: #808080"/>
    <path d="M 320.972711 116.987894 
L 282.936611 147.935847 
" clip-path="url(#p310a3cbb48)" style="fill: none; stroke: #808080"/>
    <path d="M 320.972711 116.987894 
L 285.104915 90.916559 
" clip-path="url(#p310a3cbb48)" style="fill: none; stroke: #808080"/>
    <path d="M 320.972711 116.987894 
L 327.890548 174.358418 
" clip-path="url(#p310a3cbb48)" style="fill: none; stroke: #808080"/>
    <path d="M 320.972711 116.987894 
L 356.331398 112.946916 
" clip-path="url(#p310a3cbb48)" style="fill: none; stroke: #808080"/>
    <path d="M 320.972711 116.987894 
L 311.703527 56.488501 
" clip-path="url(#p310a3cbb48)" style="fill: none; stroke: #808080"/>
    <path d="M 77.582186 270.458991 
L 113.829868 214.039712 
" clip-path="url(#p310a3cbb48)" style="fill: none; stroke: #808080"/>
    <path d="M 52.122109 237.635277 
L 113.829868 214.039712 
" clip-path="url(#p310a3cbb48)" style="fill: none; stroke: #808080"/>
    <path d="M 135.401035 77.999298 
L 176.774305 123.69706 
" clip-path="url(#p310a3cbb48)" style="fill: none; stroke: #808080"/>
    <path d="M 174.665927 68.708006 
L 229.450744 83.664429 
" clip-path="url(#p310a3cbb48)" style="fill: none; stroke: #808080"/>
    <path d="M 174.665927 68.708006 
L 176.774305 123.69706 
" clip-path="url(#p310a3cbb48)" style="fill: none; stroke: #808080"/>
    <path d="M 113.829868 214.039712 
L 52.122109 237.635277 
" clip-path="url(#p310a3cbb48)" style="fill: none; stroke: #808080"/>
    <path d="M 113.829868 214.039712 
L 77.582186 270.458991 
" clip-path="url(#p310a3cbb48)" style="fill: none; stroke: #808080"/>
    <path d="M 113.829868 214.039712 
L 179.288381 227.032269 
" clip-path="url(#p310a3cbb48)" style="fill: none; stroke: #808080"/>
    <path d="M 113.829868 214.039712 
L 173.27978 182.244461 
" clip-path="url(#p310a3cbb48)" style="fill: none; stroke: #808080"/>
    <path d="M 113.829868 214.039712 
L 128.367918 172.679687 
" clip-path="url(#p310a3cbb48)" style="fill: none; stroke: #808080"/>
    <path d="M 113.829868 214.039712 
L 39.986777 212.045751 
" clip-path="url(#p310a3cbb48)" style="fill: none; stroke: #808080"/>
    <path d="M 113.829868 214.039712 
L 129.430111 253.447322 
" clip-path="url(#p310a3cbb48)" style="fill: none; stroke: #808080"/>
    <path d="M 113.829868 214.039712 
L 69.43428 185.655078 
" clip-path="url(#p310a3cbb48)" style="fill: none; stroke: #808080"/>
    <path d="M 218.579522 44.867745 
L 176.774305 123.69706 
" clip-path="url(#p310a3cbb48)" style="fill: none; stroke: #808080"/>
    <path d="M 218.579522 44.867745 
L 285.104915 90.916559 
" clip-path="url(#p310a3cbb48)" style="fill: none; stroke: #808080"/>
    <path d="M 218.579522 44.867745 
L 229.450744 83.664429 
" clip-path="url(#p310a3cbb48)" style="fill: none; stroke: #808080"/>
    <path d="M 346.654263 67.804849 
L 285.104915 90.916559 
" clip-path="url(#p310a3cbb48)" style="fill: none; stroke: #808080"/>
    <path d="M 346.654263 67.804849 
L 320.972711 116.987894 
" clip-path="url(#p310a3cbb48)" style="fill: none; stroke: #808080"/>
    <path d="M 372.801484 71.608141 
L 320.972711 116.987894 
" clip-path="url(#p310a3cbb48)" style="fill: none; stroke: #808080"/>
    <path d="M 372.801484 71.608141 
L 285.104915 90.916559 
" clip-path="url(#p310a3cbb48)" style="fill: none; stroke: #808080"/>
    <path d="M 62.823658 160.132711 
L 113.829868 214.039712 
" clip-path="url(#p310a3cbb48)" style="fill: none; stroke: #808080"/>
    <path d="M 356.331398 112.946916 
L 320.972711 116.987894 
" clip-path="url(#p310a3cbb48)" style="fill: none; stroke: #808080"/>
    <path d="M 173.806115 28.833553 
L 229.450744 83.664429 
" clip-path="url(#p310a3cbb48)" style="fill: none; stroke: #808080"/>
    <path d="M 105.526119 89.655773 
L 176.774305 123.69706 
" clip-path="url(#p310a3cbb48)" style="fill: none; stroke: #808080"/>
    <path d="M 39.986777 212.045751 
L 113.829868 214.039712 
" clip-path="url(#p310a3cbb48)" style="fill: none; stroke: #808080"/>
    <path d="M 107.690402 287.63392 
L 179.288381 227.032269 
" clip-path="url(#p310a3cbb48)" style="fill: none; stroke: #808080"/>
    <path d="M 107.690402 287.63392 
L 113.829868 214.039712 
" clip-path="url(#p310a3cbb48)" style="fill: none; stroke: #808080"/>
    <path d="M 69.43428 185.655078 
L 113.829868 214.039712 
" clip-path="url(#p310a3cbb48)" style="fill: none; stroke: #808080"/>
    <path d="M 229.450744 83.664429 
L 173.806115 28.833553 
" clip-path="url(#p310a3cbb48)" style="fill: none; stroke: #808080"/>
    <path d="M 229.450744 83.664429 
L 282.936611 147.935847 
" clip-path="url(#p310a3cbb48)" style="fill: none; stroke: #808080"/>
    <path d="M 229.450744 83.664429 
L 311.703527 56.488501 
" clip-path="url(#p310a3cbb48)" style="fill: none; stroke: #808080"/>
    <path d="M 229.450744 83.664429 
L 174.665927 68.708006 
" clip-path="url(#p310a3cbb48)" style="fill: none; stroke: #808080"/>
    <path d="M 229.450744 83.664429 
L 285.104915 90.916559 
" clip-path="url(#p310a3cbb48)" style="fill: none; stroke: #808080"/>
    <path d="M 229.450744 83.664429 
L 247.113139 143.957307 
" clip-path="url(#p310a3cbb48)" style="fill: none; stroke: #808080"/>
    <path d="M 229.450744 83.664429 
L 176.774305 123.69706 
" clip-path="url(#p310a3cbb48)" style="fill: none; stroke: #808080"/>
    <path d="M 229.450744 83.664429 
L 218.579522 44.867745 
" clip-path="url(#p310a3cbb48)" style="fill: none; stroke: #808080"/>
    <path d="M 400.84588 133.821474 
L 320.972711 116.987894 
" clip-path="url(#p310a3cbb48)" style="fill: none; stroke: #808080"/>
    <path d="M 243.844845 256.477108 
L 179.288381 227.032269 
" clip-path="url(#p310a3cbb48)" style="fill: none; stroke: #808080"/>
    <path d="M 149.272556 287.979011 
L 179.288381 227.032269 
" clip-path="url(#p310a3cbb48)" style="fill: none; stroke: #808080"/>
    <path d="M 183.421999 265.526471 
L 179.288381 227.032269 
" clip-path="url(#p310a3cbb48)" style="fill: none; stroke: #808080"/>
    <path d="M 81.379859 248.052256 
L 179.288381 227.032269 
" clip-path="url(#p310a3cbb48)" style="fill: none; stroke: #808080"/>
    <path d="M 81.379859 248.052256 
L 113.829868 214.039712 
" clip-path="url(#p310a3cbb48)" style="fill: none; stroke: #808080"/>
    <path d="M 285.104915 90.916559 
L 320.972711 116.987894 
" clip-path="url(#p310a3cbb48)" style="fill: none; stroke: #808080"/>
    <path d="M 285.104915 90.916559 
L 282.936611 147.935847 
" clip-path="url(#p310a3cbb48)" style="fill: none; stroke: #808080"/>
    <path d="M 285.104915 90.916559 
L 218.579522 44.867745 
" clip-path="url(#p310a3cbb48)" style="fill: none; stroke: #808080"/>
    <path d="M 285.104915 90.916559 
L 247.113139 143.957307 
" clip-path="url(#p310a3cbb48)" style="fill: none; stroke: #808080"/>
    <path d="M 285.104915 90.916559 
L 346.654263 67.804849 
" clip-path="url(#p310a3cbb48)" style="fill: none; stroke: #808080"/>
    <path d="M 285.104915 90.916559 
L 356.331398 112.946916 
" clip-path="url(#p310a3cbb48)" style="fill: none; stroke: #808080"/>
    <path d="M 285.104915 90.916559 
L 261.745599 57.263602 
" clip-path="url(#p310a3cbb48)" style="fill: none; stroke: #808080"/>
    <path d="M 285.104915 90.916559 
L 229.450744 83.664429 
" clip-path="url(#p310a3cbb48)" style="fill: none; stroke: #808080"/>
    <path d="M 396.767473 84.369194 
L 285.104915 90.916559 
" clip-path="url(#p310a3cbb48)" style="fill: none; stroke: #808080"/>
    <path d="M 396.767473 84.369194 
L 320.972711 116.987894 
" clip-path="url(#p310a3cbb48)" style="fill: none; stroke: #808080"/>
    <path d="M 420.813223 118.890699 
L 320.972711 116.987894 
" clip-path="url(#p310a3cbb48)" style="fill: none; stroke: #808080"/>
    <path d="M 201.26422 170.677439 
L 113.829868 214.039712 
" clip-path="url(#p310a3cbb48)" style="fill: none; stroke: #808080"/>
    <path d="M 201.26422 170.677439 
L 282.936611 147.935847 
" clip-path="url(#p310a3cbb48)" style="fill: none; stroke: #808080"/>
    <path d="M 201.26422 170.677439 
L 173.27978 182.244461 
" clip-path="url(#p310a3cbb48)" style="fill: none; stroke: #808080"/>
    <path d="M 201.26422 170.677439 
L 251.725484 201.303792 
" clip-path="url(#p310a3cbb48)" style="fill: none; stroke: #808080"/>
    <path d="M 201.26422 170.677439 
L 128.367918 172.679687 
" clip-path="url(#p310a3cbb48)" style="fill: none; stroke: #808080"/>
    <path d="M 201.26422 170.677439 
L 179.288381 227.032269 
" clip-path="url(#p310a3cbb48)" style="fill: none; stroke: #808080"/>
    <path d="M 201.26422 170.677439 
L 247.113139 143.957307 
" clip-path="url(#p310a3cbb48)" style="fill: none; stroke: #808080"/>
    <path d="M 201.26422 170.677439 
L 176.774305 123.69706 
" clip-path="url(#p310a3cbb48)" style="fill: none; stroke: #808080"/>
    <path d="M 405.883699 164.585758 
L 320.972711 116.987894 
" clip-path="url(#p310a3cbb48)" style="fill: none; stroke: #808080"/>
    <path d="M 129.430111 253.447322 
L 179.288381 227.032269 
" clip-path="url(#p310a3cbb48)" style="fill: none; stroke: #808080"/>
    <path d="M 129.430111 253.447322 
L 113.829868 214.039712 
" clip-path="url(#p310a3cbb48)" style="fill: none; stroke: #808080"/>
   </g>
   <g id="PathCollection_1">
    <defs>
     <path id="md43c41dcd7" d="M 0 7.071068 
C 1.875269 7.071068 3.673985 6.326016 5 5 
C 6.326016 3.673985 7.071068 1.875269 7.071068 0 
C 7.071068 -1.875269 6.326016 -3.673985 5 -5 
C 3.673985 -6.326016 1.875269 -7.071068 0 -7.071068 
C -1.875269 -7.071068 -3.673985 -6.326016 -5 -5 
C -6.326016 -3.673985 -7.071068 -1.875269 -7.071068 0 
C -7.071068 1.875269 -6.326016 3.673985 -5 5 
C -3.673985 6.326016 -1.875269 7.071068 0 7.071068 
z
" style="stroke: #add8e6"/>
    </defs>
    <g clip-path="url(#p310a3cbb48)">
     <use xlink:href="#md43c41dcd7" x="366.078065" y="175.755191" style="fill: #add8e6; stroke: #add8e6"/>
     <use xlink:href="#md43c41dcd7" x="173.27978" y="182.244461" style="fill: #add8e6; stroke: #add8e6"/>
     <use xlink:href="#md43c41dcd7" x="410.300024" y="197.126243" style="fill: #add8e6; stroke: #add8e6"/>
     <use xlink:href="#md43c41dcd7" x="78.258414" y="64.061278" style="fill: #add8e6; stroke: #add8e6"/>
     <use xlink:href="#md43c41dcd7" x="176.774305" y="123.69706" style="fill: #add8e6; stroke: #add8e6"/>
     <use xlink:href="#md43c41dcd7" x="234.224506" y="291.322799" style="fill: #add8e6; stroke: #add8e6"/>
     <use xlink:href="#md43c41dcd7" x="370.335917" y="264.983183" style="fill: #add8e6; stroke: #add8e6"/>
     <use xlink:href="#md43c41dcd7" x="311.703527" y="56.488501" style="fill: #add8e6; stroke: #add8e6"/>
     <use xlink:href="#md43c41dcd7" x="327.890548" y="174.358418" style="fill: #add8e6; stroke: #add8e6"/>
     <use xlink:href="#md43c41dcd7" x="128.367918" y="172.679687" style="fill: #add8e6; stroke: #add8e6"/>
     <use xlink:href="#md43c41dcd7" x="251.725484" y="201.303792" style="fill: #add8e6; stroke: #add8e6"/>
     <use xlink:href="#md43c41dcd7" x="117.462824" y="138.150154" style="fill: #add8e6; stroke: #add8e6"/>
     <use xlink:href="#md43c41dcd7" x="295.453064" y="293.706014" style="fill: #add8e6; stroke: #add8e6"/>
     <use xlink:href="#md43c41dcd7" x="179.288381" y="227.032269" style="fill: #add8e6; stroke: #add8e6"/>
     <use xlink:href="#md43c41dcd7" x="67.186211" y="94.037809" style="fill: #add8e6; stroke: #add8e6"/>
     <use xlink:href="#md43c41dcd7" x="282.936611" y="147.935847" style="fill: #add8e6; stroke: #add8e6"/>
     <use xlink:href="#md43c41dcd7" x="71.123702" y="126.61901" style="fill: #add8e6; stroke: #add8e6"/>
     <use xlink:href="#md43c41dcd7" x="316.84333" y="223.190249" style="fill: #add8e6; stroke: #add8e6"/>
     <use xlink:href="#md43c41dcd7" x="247.113139" y="143.957307" style="fill: #add8e6; stroke: #add8e6"/>
     <use xlink:href="#md43c41dcd7" x="302.087949" y="256.586404" style="fill: #add8e6; stroke: #add8e6"/>
     <use xlink:href="#md43c41dcd7" x="261.745599" y="57.263602" style="fill: #add8e6; stroke: #add8e6"/>
     <use xlink:href="#md43c41dcd7" x="320.972711" y="116.987894" style="fill: #add8e6; stroke: #add8e6"/>
     <use xlink:href="#md43c41dcd7" x="77.582186" y="270.458991" style="fill: #add8e6; stroke: #add8e6"/>
     <use xlink:href="#md43c41dcd7" x="52.122109" y="237.635277" style="fill: #add8e6; stroke: #add8e6"/>
     <use xlink:href="#md43c41dcd7" x="135.401035" y="77.999298" style="fill: #add8e6; stroke: #add8e6"/>
     <use xlink:href="#md43c41dcd7" x="237.460433" y="316.247772" style="fill: #add8e6; stroke: #add8e6"/>
     <use xlink:href="#md43c41dcd7" x="174.665927" y="68.708006" style="fill: #add8e6; stroke: #add8e6"/>
     <use xlink:href="#md43c41dcd7" x="113.829868" y="214.039712" style="fill: #add8e6; stroke: #add8e6"/>
     <use xlink:href="#md43c41dcd7" x="218.579522" y="44.867745" style="fill: #add8e6; stroke: #add8e6"/>
     <use xlink:href="#md43c41dcd7" x="346.654263" y="67.804849" style="fill: #add8e6; stroke: #add8e6"/>
     <use xlink:href="#md43c41dcd7" x="372.801484" y="71.608141" style="fill: #add8e6; stroke: #add8e6"/>
     <use xlink:href="#md43c41dcd7" x="62.823658" y="160.132711" style="fill: #add8e6; stroke: #add8e6"/>
     <use xlink:href="#md43c41dcd7" x="326.747986" y="328.786469" style="fill: #add8e6; stroke: #add8e6"/>
     <use xlink:href="#md43c41dcd7" x="356.331398" y="112.946916" style="fill: #add8e6; stroke: #add8e6"/>
     <use xlink:href="#md43c41dcd7" x="369.443549" y="220.650472" style="fill: #add8e6; stroke: #add8e6"/>
     <use xlink:href="#md43c41dcd7" x="173.806115" y="28.833553" style="fill: #add8e6; stroke: #add8e6"/>
     <use xlink:href="#md43c41dcd7" x="105.526119" y="89.655773" style="fill: #add8e6; stroke: #add8e6"/>
     <use xlink:href="#md43c41dcd7" x="39.986777" y="212.045751" style="fill: #add8e6; stroke: #add8e6"/>
     <use xlink:href="#md43c41dcd7" x="107.690402" y="287.63392" style="fill: #add8e6; stroke: #add8e6"/>
     <use xlink:href="#md43c41dcd7" x="69.43428" y="185.655078" style="fill: #add8e6; stroke: #add8e6"/>
     <use xlink:href="#md43c41dcd7" x="229.450744" y="83.664429" style="fill: #add8e6; stroke: #add8e6"/>
     <use xlink:href="#md43c41dcd7" x="400.84588" y="133.821474" style="fill: #add8e6; stroke: #add8e6"/>
     <use xlink:href="#md43c41dcd7" x="399.365488" y="264.719124" style="fill: #add8e6; stroke: #add8e6"/>
     <use xlink:href="#md43c41dcd7" x="145.660852" y="37.663007" style="fill: #add8e6; stroke: #add8e6"/>
     <use xlink:href="#md43c41dcd7" x="368.322231" y="309.766865" style="fill: #add8e6; stroke: #add8e6"/>
     <use xlink:href="#md43c41dcd7" x="243.844845" y="256.477108" style="fill: #add8e6; stroke: #add8e6"/>
     <use xlink:href="#md43c41dcd7" x="327.896216" y="303.789583" style="fill: #add8e6; stroke: #add8e6"/>
     <use xlink:href="#md43c41dcd7" x="149.272556" y="287.979011" style="fill: #add8e6; stroke: #add8e6"/>
     <use xlink:href="#md43c41dcd7" x="280.685339" y="329.890909" style="fill: #add8e6; stroke: #add8e6"/>
     <use xlink:href="#md43c41dcd7" x="384.249405" y="297.339187" style="fill: #add8e6; stroke: #add8e6"/>
     <use xlink:href="#md43c41dcd7" x="183.421999" y="265.526471" style="fill: #add8e6; stroke: #add8e6"/>
     <use xlink:href="#md43c41dcd7" x="81.379859" y="248.052256" style="fill: #add8e6; stroke: #add8e6"/>
     <use xlink:href="#md43c41dcd7" x="285.104915" y="90.916559" style="fill: #add8e6; stroke: #add8e6"/>
     <use xlink:href="#md43c41dcd7" x="104.024946" y="41.915385" style="fill: #add8e6; stroke: #add8e6"/>
     <use xlink:href="#md43c41dcd7" x="396.767473" y="84.369194" style="fill: #add8e6; stroke: #add8e6"/>
     <use xlink:href="#md43c41dcd7" x="401.976957" y="228.740361" style="fill: #add8e6; stroke: #add8e6"/>
     <use xlink:href="#md43c41dcd7" x="420.813223" y="118.890699" style="fill: #add8e6; stroke: #add8e6"/>
     <use xlink:href="#md43c41dcd7" x="201.26422" y="170.677439" style="fill: #add8e6; stroke: #add8e6"/>
     <use xlink:href="#md43c41dcd7" x="405.883699" y="164.585758" style="fill: #add8e6; stroke: #add8e6"/>
     <use xlink:href="#md43c41dcd7" x="186.583343" y="310.433337" style="fill: #add8e6; stroke: #add8e6"/>
     <use xlink:href="#md43c41dcd7" x="129.430111" y="253.447322" style="fill: #add8e6; stroke: #add8e6"/>
    </g>
   </g>
   <g id="text_1">
    <g clip-path="url(#p310a3cbb48)">
     <!-- 0 -->
     <g transform="translate(362.260565 179.066441)scale(0.12 -0.12)">
      <defs>
       <path id="DejaVuSans-30" d="M 2034 4250 
Q 1547 4250 1301 3770 
Q 1056 3291 1056 2328 
Q 1056 1369 1301 889 
Q 1547 409 2034 409 
Q 2525 409 2770 889 
Q 3016 1369 3016 2328 
Q 3016 3291 2770 3770 
Q 2525 4250 2034 4250 
z
M 2034 4750 
Q 2819 4750 3233 4129 
Q 3647 3509 3647 2328 
Q 3647 1150 3233 529 
Q 2819 -91 2034 -91 
Q 1250 -91 836 529 
Q 422 1150 422 2328 
Q 422 3509 836 4129 
Q 1250 4750 2034 4750 
z
" transform="scale(0.015625)"/>
      </defs>
      <use xlink:href="#DejaVuSans-30"/>
     </g>
    </g>
   </g>
   <g id="text_2">
    <g clip-path="url(#p310a3cbb48)">
     <!-- 1 -->
     <g transform="translate(169.46228 185.555711)scale(0.12 -0.12)">
      <defs>
       <path id="DejaVuSans-31" d="M 794 531 
L 1825 531 
L 1825 4091 
L 703 3866 
L 703 4441 
L 1819 4666 
L 2450 4666 
L 2450 531 
L 3481 531 
L 3481 0 
L 794 0 
L 794 531 
z
" transform="scale(0.015625)"/>
      </defs>
      <use xlink:href="#DejaVuSans-31"/>
     </g>
    </g>
   </g>
   <g id="text_3">
    <g clip-path="url(#p310a3cbb48)">
     <!-- 2 -->
     <g transform="translate(406.482524 200.437493)scale(0.12 -0.12)">
      <defs>
       <path id="DejaVuSans-32" d="M 1228 531 
L 3431 531 
L 3431 0 
L 469 0 
L 469 531 
Q 828 903 1448 1529 
Q 2069 2156 2228 2338 
Q 2531 2678 2651 2914 
Q 2772 3150 2772 3378 
Q 2772 3750 2511 3984 
Q 2250 4219 1831 4219 
Q 1534 4219 1204 4116 
Q 875 4013 500 3803 
L 500 4441 
Q 881 4594 1212 4672 
Q 1544 4750 1819 4750 
Q 2544 4750 2975 4387 
Q 3406 4025 3406 3419 
Q 3406 3131 3298 2873 
Q 3191 2616 2906 2266 
Q 2828 2175 2409 1742 
Q 1991 1309 1228 531 
z
" transform="scale(0.015625)"/>
      </defs>
      <use xlink:href="#DejaVuSans-32"/>
     </g>
    </g>
   </g>
   <g id="text_4">
    <g clip-path="url(#p310a3cbb48)">
     <!-- 3 -->
     <g transform="translate(74.440914 67.372528)scale(0.12 -0.12)">
      <defs>
       <path id="DejaVuSans-33" d="M 2597 2516 
Q 3050 2419 3304 2112 
Q 3559 1806 3559 1356 
Q 3559 666 3084 287 
Q 2609 -91 1734 -91 
Q 1441 -91 1130 -33 
Q 819 25 488 141 
L 488 750 
Q 750 597 1062 519 
Q 1375 441 1716 441 
Q 2309 441 2620 675 
Q 2931 909 2931 1356 
Q 2931 1769 2642 2001 
Q 2353 2234 1838 2234 
L 1294 2234 
L 1294 2753 
L 1863 2753 
Q 2328 2753 2575 2939 
Q 2822 3125 2822 3475 
Q 2822 3834 2567 4026 
Q 2313 4219 1838 4219 
Q 1578 4219 1281 4162 
Q 984 4106 628 3988 
L 628 4550 
Q 988 4650 1302 4700 
Q 1616 4750 1894 4750 
Q 2613 4750 3031 4423 
Q 3450 4097 3450 3541 
Q 3450 3153 3228 2886 
Q 3006 2619 2597 2516 
z
" transform="scale(0.015625)"/>
      </defs>
      <use xlink:href="#DejaVuSans-33"/>
     </g>
    </g>
   </g>
   <g id="text_5">
    <g clip-path="url(#p310a3cbb48)">
     <!-- 4 -->
     <g transform="translate(172.956805 127.00831)scale(0.12 -0.12)">
      <defs>
       <path id="DejaVuSans-34" d="M 2419 4116 
L 825 1625 
L 2419 1625 
L 2419 4116 
z
M 2253 4666 
L 3047 4666 
L 3047 1625 
L 3713 1625 
L 3713 1100 
L 3047 1100 
L 3047 0 
L 2419 0 
L 2419 1100 
L 313 1100 
L 313 1709 
L 2253 4666 
z
" transform="scale(0.015625)"/>
      </defs>
      <use xlink:href="#DejaVuSans-34"/>
     </g>
    </g>
   </g>
   <g id="text_6">
    <g clip-path="url(#p310a3cbb48)">
     <!-- 5 -->
     <g transform="translate(230.407006 294.634049)scale(0.12 -0.12)">
      <defs>
       <path id="DejaVuSans-35" d="M 691 4666 
L 3169 4666 
L 3169 4134 
L 1269 4134 
L 1269 2991 
Q 1406 3038 1543 3061 
Q 1681 3084 1819 3084 
Q 2600 3084 3056 2656 
Q 3513 2228 3513 1497 
Q 3513 744 3044 326 
Q 2575 -91 1722 -91 
Q 1428 -91 1123 -41 
Q 819 9 494 109 
L 494 744 
Q 775 591 1075 516 
Q 1375 441 1709 441 
Q 2250 441 2565 725 
Q 2881 1009 2881 1497 
Q 2881 1984 2565 2268 
Q 2250 2553 1709 2553 
Q 1456 2553 1204 2497 
Q 953 2441 691 2322 
L 691 4666 
z
" transform="scale(0.015625)"/>
      </defs>
      <use xlink:href="#DejaVuSans-35"/>
     </g>
    </g>
   </g>
   <g id="text_7">
    <g clip-path="url(#p310a3cbb48)">
     <!-- 6 -->
     <g transform="translate(366.518417 268.294433)scale(0.12 -0.12)">
      <defs>
       <path id="DejaVuSans-36" d="M 2113 2584 
Q 1688 2584 1439 2293 
Q 1191 2003 1191 1497 
Q 1191 994 1439 701 
Q 1688 409 2113 409 
Q 2538 409 2786 701 
Q 3034 994 3034 1497 
Q 3034 2003 2786 2293 
Q 2538 2584 2113 2584 
z
M 3366 4563 
L 3366 3988 
Q 3128 4100 2886 4159 
Q 2644 4219 2406 4219 
Q 1781 4219 1451 3797 
Q 1122 3375 1075 2522 
Q 1259 2794 1537 2939 
Q 1816 3084 2150 3084 
Q 2853 3084 3261 2657 
Q 3669 2231 3669 1497 
Q 3669 778 3244 343 
Q 2819 -91 2113 -91 
Q 1303 -91 875 529 
Q 447 1150 447 2328 
Q 447 3434 972 4092 
Q 1497 4750 2381 4750 
Q 2619 4750 2861 4703 
Q 3103 4656 3366 4563 
z
" transform="scale(0.015625)"/>
      </defs>
      <use xlink:href="#DejaVuSans-36"/>
     </g>
    </g>
   </g>
   <g id="text_8">
    <g clip-path="url(#p310a3cbb48)">
     <!-- 7 -->
     <g transform="translate(307.886027 59.799751)scale(0.12 -0.12)">
      <defs>
       <path id="DejaVuSans-37" d="M 525 4666 
L 3525 4666 
L 3525 4397 
L 1831 0 
L 1172 0 
L 2766 4134 
L 525 4134 
L 525 4666 
z
" transform="scale(0.015625)"/>
      </defs>
      <use xlink:href="#DejaVuSans-37"/>
     </g>
    </g>
   </g>
   <g id="text_9">
    <g clip-path="url(#p310a3cbb48)">
     <!-- 8 -->
     <g transform="translate(324.073048 177.669668)scale(0.12 -0.12)">
      <defs>
       <path id="DejaVuSans-38" d="M 2034 2216 
Q 1584 2216 1326 1975 
Q 1069 1734 1069 1313 
Q 1069 891 1326 650 
Q 1584 409 2034 409 
Q 2484 409 2743 651 
Q 3003 894 3003 1313 
Q 3003 1734 2745 1975 
Q 2488 2216 2034 2216 
z
M 1403 2484 
Q 997 2584 770 2862 
Q 544 3141 544 3541 
Q 544 4100 942 4425 
Q 1341 4750 2034 4750 
Q 2731 4750 3128 4425 
Q 3525 4100 3525 3541 
Q 3525 3141 3298 2862 
Q 3072 2584 2669 2484 
Q 3125 2378 3379 2068 
Q 3634 1759 3634 1313 
Q 3634 634 3220 271 
Q 2806 -91 2034 -91 
Q 1263 -91 848 271 
Q 434 634 434 1313 
Q 434 1759 690 2068 
Q 947 2378 1403 2484 
z
M 1172 3481 
Q 1172 3119 1398 2916 
Q 1625 2713 2034 2713 
Q 2441 2713 2670 2916 
Q 2900 3119 2900 3481 
Q 2900 3844 2670 4047 
Q 2441 4250 2034 4250 
Q 1625 4250 1398 4047 
Q 1172 3844 1172 3481 
z
" transform="scale(0.015625)"/>
      </defs>
      <use xlink:href="#DejaVuSans-38"/>
     </g>
    </g>
   </g>
   <g id="text_10">
    <g clip-path="url(#p310a3cbb48)">
     <!-- 9 -->
     <g transform="translate(124.550418 175.990937)scale(0.12 -0.12)">
      <defs>
       <path id="DejaVuSans-39" d="M 703 97 
L 703 672 
Q 941 559 1184 500 
Q 1428 441 1663 441 
Q 2288 441 2617 861 
Q 2947 1281 2994 2138 
Q 2813 1869 2534 1725 
Q 2256 1581 1919 1581 
Q 1219 1581 811 2004 
Q 403 2428 403 3163 
Q 403 3881 828 4315 
Q 1253 4750 1959 4750 
Q 2769 4750 3195 4129 
Q 3622 3509 3622 2328 
Q 3622 1225 3098 567 
Q 2575 -91 1691 -91 
Q 1453 -91 1209 -44 
Q 966 3 703 97 
z
M 1959 2075 
Q 2384 2075 2632 2365 
Q 2881 2656 2881 3163 
Q 2881 3666 2632 3958 
Q 2384 4250 1959 4250 
Q 1534 4250 1286 3958 
Q 1038 3666 1038 3163 
Q 1038 2656 1286 2365 
Q 1534 2075 1959 2075 
z
" transform="scale(0.015625)"/>
      </defs>
      <use xlink:href="#DejaVuSans-39"/>
     </g>
    </g>
   </g>
   <g id="text_11">
    <g clip-path="url(#p310a3cbb48)">
     <!-- 10 -->
     <g transform="translate(244.090484 204.615042)scale(0.12 -0.12)">
      <use xlink:href="#DejaVuSans-31"/>
      <use xlink:href="#DejaVuSans-30" x="63.623047"/>
     </g>
    </g>
   </g>
   <g id="text_12">
    <g clip-path="url(#p310a3cbb48)">
     <!-- 11 -->
     <g transform="translate(109.827824 141.461404)scale(0.12 -0.12)">
      <use xlink:href="#DejaVuSans-31"/>
      <use xlink:href="#DejaVuSans-31" x="63.623047"/>
     </g>
    </g>
   </g>
   <g id="text_13">
    <g clip-path="url(#p310a3cbb48)">
     <!-- 12 -->
     <g transform="translate(287.818064 297.017264)scale(0.12 -0.12)">
      <use xlink:href="#DejaVuSans-31"/>
      <use xlink:href="#DejaVuSans-32" x="63.623047"/>
     </g>
    </g>
   </g>
   <g id="text_14">
    <g clip-path="url(#p310a3cbb48)">
     <!-- 13 -->
     <g transform="translate(171.653381 230.343519)scale(0.12 -0.12)">
      <use xlink:href="#DejaVuSans-31"/>
      <use xlink:href="#DejaVuSans-33" x="63.623047"/>
     </g>
    </g>
   </g>
   <g id="text_15">
    <g clip-path="url(#p310a3cbb48)">
     <!-- 14 -->
     <g transform="translate(59.551211 97.349059)scale(0.12 -0.12)">
      <use xlink:href="#DejaVuSans-31"/>
      <use xlink:href="#DejaVuSans-34" x="63.623047"/>
     </g>
    </g>
   </g>
   <g id="text_16">
    <g clip-path="url(#p310a3cbb48)">
     <!-- 15 -->
     <g transform="translate(275.301611 151.247097)scale(0.12 -0.12)">
      <use xlink:href="#DejaVuSans-31"/>
      <use xlink:href="#DejaVuSans-35" x="63.623047"/>
     </g>
    </g>
   </g>
   <g id="text_17">
    <g clip-path="url(#p310a3cbb48)">
     <!-- 16 -->
     <g transform="translate(63.488702 129.93026)scale(0.12 -0.12)">
      <use xlink:href="#DejaVuSans-31"/>
      <use xlink:href="#DejaVuSans-36" x="63.623047"/>
     </g>
    </g>
   </g>
   <g id="text_18">
    <g clip-path="url(#p310a3cbb48)">
     <!-- 17 -->
     <g transform="translate(309.20833 226.501499)scale(0.12 -0.12)">
      <use xlink:href="#DejaVuSans-31"/>
      <use xlink:href="#DejaVuSans-37" x="63.623047"/>
     </g>
    </g>
   </g>
   <g id="text_19">
    <g clip-path="url(#p310a3cbb48)">
     <!-- 18 -->
     <g transform="translate(239.478139 147.268557)scale(0.12 -0.12)">
      <use xlink:href="#DejaVuSans-31"/>
      <use xlink:href="#DejaVuSans-38" x="63.623047"/>
     </g>
    </g>
   </g>
   <g id="text_20">
    <g clip-path="url(#p310a3cbb48)">
     <!-- 19 -->
     <g transform="translate(294.452949 259.897654)scale(0.12 -0.12)">
      <use xlink:href="#DejaVuSans-31"/>
      <use xlink:href="#DejaVuSans-39" x="63.623047"/>
     </g>
    </g>
   </g>
   <g id="text_21">
    <g clip-path="url(#p310a3cbb48)">
     <!-- 20 -->
     <g transform="translate(254.110599 60.574852)scale(0.12 -0.12)">
      <use xlink:href="#DejaVuSans-32"/>
      <use xlink:href="#DejaVuSans-30" x="63.623047"/>
     </g>
    </g>
   </g>
   <g id="text_22">
    <g clip-path="url(#p310a3cbb48)">
     <!-- 21 -->
     <g transform="translate(313.337711 120.299144)scale(0.12 -0.12)">
      <use xlink:href="#DejaVuSans-32"/>
      <use xlink:href="#DejaVuSans-31" x="63.623047"/>
     </g>
    </g>
   </g>
   <g id="text_23">
    <g clip-path="url(#p310a3cbb48)">
     <!-- 22 -->
     <g transform="translate(69.947186 273.770241)scale(0.12 -0.12)">
      <use xlink:href="#DejaVuSans-32"/>
      <use xlink:href="#DejaVuSans-32" x="63.623047"/>
     </g>
    </g>
   </g>
   <g id="text_24">
    <g clip-path="url(#p310a3cbb48)">
     <!-- 23 -->
     <g transform="translate(44.487109 240.946527)scale(0.12 -0.12)">
      <use xlink:href="#DejaVuSans-32"/>
      <use xlink:href="#DejaVuSans-33" x="63.623047"/>
     </g>
    </g>
   </g>
   <g id="text_25">
    <g clip-path="url(#p310a3cbb48)">
     <!-- 24 -->
     <g transform="translate(127.766035 81.310548)scale(0.12 -0.12)">
      <use xlink:href="#DejaVuSans-32"/>
      <use xlink:href="#DejaVuSans-34" x="63.623047"/>
     </g>
    </g>
   </g>
   <g id="text_26">
    <g clip-path="url(#p310a3cbb48)">
     <!-- 25 -->
     <g transform="translate(229.825433 319.559022)scale(0.12 -0.12)">
      <use xlink:href="#DejaVuSans-32"/>
      <use xlink:href="#DejaVuSans-35" x="63.623047"/>
     </g>
    </g>
   </g>
   <g id="text_27">
    <g clip-path="url(#p310a3cbb48)">
     <!-- 26 -->
     <g transform="translate(167.030927 72.019256)scale(0.12 -0.12)">
      <use xlink:href="#DejaVuSans-32"/>
      <use xlink:href="#DejaVuSans-36" x="63.623047"/>
     </g>
    </g>
   </g>
   <g id="text_28">
    <g clip-path="url(#p310a3cbb48)">
     <!-- 27 -->
     <g transform="translate(106.194868 217.350962)scale(0.12 -0.12)">
      <use xlink:href="#DejaVuSans-32"/>
      <use xlink:href="#DejaVuSans-37" x="63.623047"/>
     </g>
    </g>
   </g>
   <g id="text_29">
    <g clip-path="url(#p310a3cbb48)">
     <!-- 28 -->
     <g transform="translate(210.944522 48.178995)scale(0.12 -0.12)">
      <use xlink:href="#DejaVuSans-32"/>
      <use xlink:href="#DejaVuSans-38" x="63.623047"/>
     </g>
    </g>
   </g>
   <g id="text_30">
    <g clip-path="url(#p310a3cbb48)">
     <!-- 29 -->
     <g transform="translate(339.019263 71.116099)scale(0.12 -0.12)">
      <use xlink:href="#DejaVuSans-32"/>
      <use xlink:href="#DejaVuSans-39" x="63.623047"/>
     </g>
    </g>
   </g>
   <g id="text_31">
    <g clip-path="url(#p310a3cbb48)">
     <!-- 30 -->
     <g transform="translate(365.166484 74.919391)scale(0.12 -0.12)">
      <use xlink:href="#DejaVuSans-33"/>
      <use xlink:href="#DejaVuSans-30" x="63.623047"/>
     </g>
    </g>
   </g>
   <g id="text_32">
    <g clip-path="url(#p310a3cbb48)">
     <!-- 31 -->
     <g transform="translate(55.188658 163.443961)scale(0.12 -0.12)">
      <use xlink:href="#DejaVuSans-33"/>
      <use xlink:href="#DejaVuSans-31" x="63.623047"/>
     </g>
    </g>
   </g>
   <g id="text_33">
    <g clip-path="url(#p310a3cbb48)">
     <!-- 32 -->
     <g transform="translate(319.112986 332.097719)scale(0.12 -0.12)">
      <use xlink:href="#DejaVuSans-33"/>
      <use xlink:href="#DejaVuSans-32" x="63.623047"/>
     </g>
    </g>
   </g>
   <g id="text_34">
    <g clip-path="url(#p310a3cbb48)">
     <!-- 33 -->
     <g transform="translate(348.696398 116.258166)scale(0.12 -0.12)">
      <use xlink:href="#DejaVuSans-33"/>
      <use xlink:href="#DejaVuSans-33" x="63.623047"/>
     </g>
    </g>
   </g>
   <g id="text_35">
    <g clip-path="url(#p310a3cbb48)">
     <!-- 34 -->
     <g transform="translate(361.808549 223.961722)scale(0.12 -0.12)">
      <use xlink:href="#DejaVuSans-33"/>
      <use xlink:href="#DejaVuSans-34" x="63.623047"/>
     </g>
    </g>
   </g>
   <g id="text_36">
    <g clip-path="url(#p310a3cbb48)">
     <!-- 35 -->
     <g transform="translate(166.171115 32.144803)scale(0.12 -0.12)">
      <use xlink:href="#DejaVuSans-33"/>
      <use xlink:href="#DejaVuSans-35" x="63.623047"/>
     </g>
    </g>
   </g>
   <g id="text_37">
    <g clip-path="url(#p310a3cbb48)">
     <!-- 36 -->
     <g transform="translate(97.891119 92.967023)scale(0.12 -0.12)">
      <use xlink:href="#DejaVuSans-33"/>
      <use xlink:href="#DejaVuSans-36" x="63.623047"/>
     </g>
    </g>
   </g>
   <g id="text_38">
    <g clip-path="url(#p310a3cbb48)">
     <!-- 37 -->
     <g transform="translate(32.351777 215.357001)scale(0.12 -0.12)">
      <use xlink:href="#DejaVuSans-33"/>
      <use xlink:href="#DejaVuSans-37" x="63.623047"/>
     </g>
    </g>
   </g>
   <g id="text_39">
    <g clip-path="url(#p310a3cbb48)">
     <!-- 38 -->
     <g transform="translate(100.055402 290.94517)scale(0.12 -0.12)">
      <use xlink:href="#DejaVuSans-33"/>
      <use xlink:href="#DejaVuSans-38" x="63.623047"/>
     </g>
    </g>
   </g>
   <g id="text_40">
    <g clip-path="url(#p310a3cbb48)">
     <!-- 39 -->
     <g transform="translate(61.79928 188.966328)scale(0.12 -0.12)">
      <use xlink:href="#DejaVuSans-33"/>
      <use xlink:href="#DejaVuSans-39" x="63.623047"/>
     </g>
    </g>
   </g>
   <g id="text_41">
    <g clip-path="url(#p310a3cbb48)">
     <!-- 40 -->
     <g transform="translate(221.815744 86.975679)scale(0.12 -0.12)">
      <use xlink:href="#DejaVuSans-34"/>
      <use xlink:href="#DejaVuSans-30" x="63.623047"/>
     </g>
    </g>
   </g>
   <g id="text_42">
    <g clip-path="url(#p310a3cbb48)">
     <!-- 41 -->
     <g transform="translate(393.21088 137.132724)scale(0.12 -0.12)">
      <use xlink:href="#DejaVuSans-34"/>
      <use xlink:href="#DejaVuSans-31" x="63.623047"/>
     </g>
    </g>
   </g>
   <g id="text_43">
    <g clip-path="url(#p310a3cbb48)">
     <!-- 42 -->
     <g transform="translate(391.730488 268.030374)scale(0.12 -0.12)">
      <use xlink:href="#DejaVuSans-34"/>
      <use xlink:href="#DejaVuSans-32" x="63.623047"/>
     </g>
    </g>
   </g>
   <g id="text_44">
    <g clip-path="url(#p310a3cbb48)">
     <!-- 43 -->
     <g transform="translate(138.025852 40.974257)scale(0.12 -0.12)">
      <use xlink:href="#DejaVuSans-34"/>
      <use xlink:href="#DejaVuSans-33" x="63.623047"/>
     </g>
    </g>
   </g>
   <g id="text_45">
    <g clip-path="url(#p310a3cbb48)">
     <!-- 44 -->
     <g transform="translate(360.687231 313.078115)scale(0.12 -0.12)">
      <use xlink:href="#DejaVuSans-34"/>
      <use xlink:href="#DejaVuSans-34" x="63.623047"/>
     </g>
    </g>
   </g>
   <g id="text_46">
    <g clip-path="url(#p310a3cbb48)">
     <!-- 45 -->
     <g transform="translate(236.209845 259.788358)scale(0.12 -0.12)">
      <use xlink:href="#DejaVuSans-34"/>
      <use xlink:href="#DejaVuSans-35" x="63.623047"/>
     </g>
    </g>
   </g>
   <g id="text_47">
    <g clip-path="url(#p310a3cbb48)">
     <!-- 46 -->
     <g transform="translate(320.261216 307.100833)scale(0.12 -0.12)">
      <use xlink:href="#DejaVuSans-34"/>
      <use xlink:href="#DejaVuSans-36" x="63.623047"/>
     </g>
    </g>
   </g>
   <g id="text_48">
    <g clip-path="url(#p310a3cbb48)">
     <!-- 47 -->
     <g transform="translate(141.637556 291.290261)scale(0.12 -0.12)">
      <use xlink:href="#DejaVuSans-34"/>
      <use xlink:href="#DejaVuSans-37" x="63.623047"/>
     </g>
    </g>
   </g>
   <g id="text_49">
    <g clip-path="url(#p310a3cbb48)">
     <!-- 48 -->
     <g transform="translate(273.050339 333.202159)scale(0.12 -0.12)">
      <use xlink:href="#DejaVuSans-34"/>
      <use xlink:href="#DejaVuSans-38" x="63.623047"/>
     </g>
    </g>
   </g>
   <g id="text_50">
    <g clip-path="url(#p310a3cbb48)">
     <!-- 49 -->
     <g transform="translate(376.614405 300.650437)scale(0.12 -0.12)">
      <use xlink:href="#DejaVuSans-34"/>
      <use xlink:href="#DejaVuSans-39" x="63.623047"/>
     </g>
    </g>
   </g>
   <g id="text_51">
    <g clip-path="url(#p310a3cbb48)">
     <!-- 50 -->
     <g transform="translate(175.786999 268.837721)scale(0.12 -0.12)">
      <use xlink:href="#DejaVuSans-35"/>
      <use xlink:href="#DejaVuSans-30" x="63.623047"/>
     </g>
    </g>
   </g>
   <g id="text_52">
    <g clip-path="url(#p310a3cbb48)">
     <!-- 51 -->
     <g transform="translate(73.744859 251.363506)scale(0.12 -0.12)">
      <use xlink:href="#DejaVuSans-35"/>
      <use xlink:href="#DejaVuSans-31" x="63.623047"/>
     </g>
    </g>
   </g>
   <g id="text_53">
    <g clip-path="url(#p310a3cbb48)">
     <!-- 52 -->
     <g transform="translate(277.469915 94.227809)scale(0.12 -0.12)">
      <use xlink:href="#DejaVuSans-35"/>
      <use xlink:href="#DejaVuSans-32" x="63.623047"/>
     </g>
    </g>
   </g>
   <g id="text_54">
    <g clip-path="url(#p310a3cbb48)">
     <!-- 53 -->
     <g transform="translate(96.389946 45.226635)scale(0.12 -0.12)">
      <use xlink:href="#DejaVuSans-35"/>
      <use xlink:href="#DejaVuSans-33" x="63.623047"/>
     </g>
    </g>
   </g>
   <g id="text_55">
    <g clip-path="url(#p310a3cbb48)">
     <!-- 54 -->
     <g transform="translate(389.132473 87.680444)scale(0.12 -0.12)">
      <use xlink:href="#DejaVuSans-35"/>
      <use xlink:href="#DejaVuSans-34" x="63.623047"/>
     </g>
    </g>
   </g>
   <g id="text_56">
    <g clip-path="url(#p310a3cbb48)">
     <!-- 55 -->
     <g transform="translate(394.341957 232.051611)scale(0.12 -0.12)">
      <use xlink:href="#DejaVuSans-35"/>
      <use xlink:href="#DejaVuSans-35" x="63.623047"/>
     </g>
    </g>
   </g>
   <g id="text_57">
    <g clip-path="url(#p310a3cbb48)">
     <!-- 56 -->
     <g transform="translate(413.178223 122.201949)scale(0.12 -0.12)">
      <use xlink:href="#DejaVuSans-35"/>
      <use xlink:href="#DejaVuSans-36" x="63.623047"/>
     </g>
    </g>
   </g>
   <g id="text_58">
    <g clip-path="url(#p310a3cbb48)">
     <!-- 57 -->
     <g transform="translate(193.62922 173.988689)scale(0.12 -0.12)">
      <use xlink:href="#DejaVuSans-35"/>
      <use xlink:href="#DejaVuSans-37" x="63.623047"/>
     </g>
    </g>
   </g>
   <g id="text_59">
    <g clip-path="url(#p310a3cbb48)">
     <!-- 58 -->
     <g transform="translate(398.248699 167.897008)scale(0.12 -0.12)">
      <use xlink:href="#DejaVuSans-35"/>
      <use xlink:href="#DejaVuSans-38" x="63.623047"/>
     </g>
    </g>
   </g>
   <g id="text_60">
    <g clip-path="url(#p310a3cbb48)">
     <!-- 59 -->
     <g transform="translate(178.948343 313.744587)scale(0.12 -0.12)">
      <use xlink:href="#DejaVuSans-35"/>
      <use xlink:href="#DejaVuSans-39" x="63.623047"/>
     </g>
    </g>
   </g>
   <g id="text_61">
    <g clip-path="url(#p310a3cbb48)">
     <!-- 60 -->
     <g transform="translate(121.795111 256.758572)scale(0.12 -0.12)">
      <use xlink:href="#DejaVuSans-36"/>
      <use xlink:href="#DejaVuSans-30" x="63.623047"/>
     </g>
    </g>
   </g>
  </g>
 </g>
 <defs>
  <clipPath id="p310a3cbb48">
   <rect x="0" y="0" width="460.8" height="345.6"/>
  </clipPath>
 </defs>
</svg>
